HIERARCHY
ROOT joint_Root
{
	OFFSET 0.0 0.0 0.0
	CHANNELS 6 Xposition Yposition Zposition Zrotation Xrotation Yrotation 
	JOINT Hips
	{
		OFFSET -17.1583 93.1646 452.98
		CHANNELS 6 Xposition Yposition Zposition Zrotation Xrotation Yrotation 
		JOINT Spine
		{
			OFFSET 15.7357 0.0 0.0
			CHANNELS 6 Xposition Yposition Zposition Zrotation Xrotation Yrotation 
			JOINT Chest
			{
				OFFSET 8.98455 -0.406207 0.0
				CHANNELS 6 Xposition Yposition Zposition Zrotation Xrotation Yrotation 
				JOINT Neck
				{
					OFFSET 16.3773 0.0 0.0
					CHANNELS 6 Xposition Yposition Zposition Zrotation Xrotation Yrotation 
					JOINT Head
					{
						OFFSET 6.45672 0.0 0.0
						CHANNELS 6 Xposition Yposition Zposition Zrotation Xrotation Yrotation 
						End Site
						{
							OFFSET 0.0 0.0 0.0
						}
					}
				}
				JOINT Shoulder_L
				{
					OFFSET 12.9942 -0.242716 4.98039
					CHANNELS 6 Xposition Yposition Zposition Zrotation Xrotation Yrotation 
					JOINT UpperArm_L
					{
						OFFSET 5.34809 0.0 0.0
						CHANNELS 6 Xposition Yposition Zposition Zrotation Xrotation Yrotation 
						JOINT LowerArm_L
						{
							OFFSET 24.3286 1.87007e-05 0.0
							CHANNELS 6 Xposition Yposition Zposition Zrotation Xrotation Yrotation 
							JOINT Hand_L
							{
								OFFSET 22.2916 0.0 0.0
								CHANNELS 6 Xposition Yposition Zposition Zrotation Xrotation Yrotation 
								End Site
								{
									OFFSET 0.0 0.0 0.0
								}
							}
						}
					}
				}
				JOINT Shoulder_R
				{
					OFFSET 12.9945 -0.242716 -4.98039
					CHANNELS 6 Xposition Yposition Zposition Zrotation Xrotation Yrotation 
					JOINT UpperArm_R
					{
						OFFSET -5.34813 0.0 0.0
						CHANNELS 6 Xposition Yposition Zposition Zrotation Xrotation Yrotation 
						JOINT LowerArm_R
						{
							OFFSET -24.3289 0.000322201 0.0
							CHANNELS 6 Xposition Yposition Zposition Zrotation Xrotation Yrotation 
							JOINT Hand_R
							{
								OFFSET -22.2915 -0.000108084 0.0
								CHANNELS 6 Xposition Yposition Zposition Zrotation Xrotation Yrotation 
								End Site
								{
									OFFSET 0.0 0.0 0.0
								}
							}
						}
					}
				}
			}
		}
		JOINT UpperLeg_L
		{
			OFFSET -2.19248 -6.46944 0.0
			CHANNELS 6 Xposition Yposition Zposition Zrotation Xrotation Yrotation 
			JOINT LowerLeg_L
			{
				OFFSET 39.0811 0.0 -1.23785e-05
				CHANNELS 6 Xposition Yposition Zposition Zrotation Xrotation Yrotation 
				JOINT Foot_L
				{
					OFFSET 40.9854 0.0 -1.26872e-05
					CHANNELS 6 Xposition Yposition Zposition Zrotation Xrotation Yrotation 
					JOINT Toes_L
					{
						OFFSET 11.7543 0.0 0.0
						CHANNELS 6 Xposition Yposition Zposition Zrotation Xrotation Yrotation 
						End Site
						{
							OFFSET 0.0 0.0 0.0
						}
					}
				}
			}
		}
		JOINT UpperLeg_R
		{
			OFFSET -2.19251 6.46944 0.0
			CHANNELS 6 Xposition Yposition Zposition Zrotation Xrotation Yrotation 
			JOINT LowerLeg_R
			{
				OFFSET -39.0811 -0.00228153 -0.0401928
				CHANNELS 6 Xposition Yposition Zposition Zrotation Xrotation Yrotation 
				JOINT Foot_R
				{
					OFFSET -40.9854 0.0 0.0
					CHANNELS 6 Xposition Yposition Zposition Zrotation Xrotation Yrotation 
					JOINT Toes_R
					{
						OFFSET -11.7543 0.0 0.0
						CHANNELS 6 Xposition Yposition Zposition Zrotation Xrotation Yrotation 
						End Site
						{
							OFFSET 0.0 0.0 0.0
						}
					}
				}
			}
		}
	}
}
MOTION
Frames:	4
Frame Time:	0.0333333
0.000000 0.000000 0.000000 0.000000 0.000000 -0.000000 -3.053130 92.131100 -2.146110 82.880400 -3.838090 2.617220 15.735700 0.000005 -0.000001 50.556900 88.121500 -47.572900 8.984550 -0.406207 -0.000000 -4.789760 -2.711270 5.860000 16.377300 -0.000001 -0.000001 10.069300 1.014670 7.718770 6.456720 -0.000001 -0.000000 7.143660 4.560300 17.591500 12.994200 -0.242716 4.980390 -91.834900 5.532390 -71.618900 5.348090 -0.000007 -0.000001 -74.513600 32.096800 3.458270 24.328600 0.000019 0.000005 12.641300 28.192300 -25.395500 22.291600 -0.000001 0.000005 -3.872190 4.950920 8.346290 12.994500 -0.242716 -4.980390 87.417100 6.941490 -69.531600 -5.348130 -0.000001 -0.000004 -67.469900 -0.125600 -10.238600 -24.328900 0.000322 -0.000009 16.599300 -20.217100 -139.218000 -22.291500 -0.000108 -0.000004 54.824200 5.634070 -13.648000 -2.192480 -6.469440 -0.000000 -171.478000 2.421930 -5.728100 39.081100 -0.000007 -0.000012 0.403183 -0.736999 28.682300 40.985400 -0.000006 -0.000013 -0.206620 2.810110 -75.972400 11.754300 -0.000000 0.000003 0.001055 0.147429 -10.597900 -2.192510 6.469440 -0.000001 -169.102000 4.547030 -178.705000 -39.081100 -0.002282 -0.040193 0.075489 -0.261098 15.449200 -40.985400 0.000008 0.000006 3.225610 3.135900 -69.680800 -11.754300 -0.000006 -0.000006 -0.009863 0.270278 -5.593000
0.000000 0.000000 0.000000 0.000000 0.000000 -0.000000 -3.021710 92.132600 -2.092010 82.942500 -3.737840 2.604740 15.735700 0.000005 -0.000001 50.220300 88.131500 -47.262200 8.984550 -0.406207 -0.000000 -4.819950 -2.713350 5.807400 16.377300 -0.000001 -0.000001 10.088400 1.014600 7.704020 6.456720 -0.000001 -0.000000 7.131500 4.516390 17.510400 12.994200 -0.242716 4.980390 -91.842100 5.545560 -71.592300 5.348090 -0.000007 -0.000001 -74.559400 32.144400 3.398720 24.328600 0.000019 0.000005 12.699500 28.068300 -25.591300 22.291600 -0.000001 0.000005 -3.779250 4.948620 8.393590 12.994500 -0.242716 -4.980390 87.419100 6.940820 -69.543900 -5.348130 -0.000001 -0.000004 -67.461900 -0.063443 -10.158000 -24.328900 0.000322 -0.000009 16.529500 -20.077500 -139.156000 -22.291500 -0.000108 -0.000004 54.827500 5.634650 -13.693800 -2.192480 -6.469440 -0.000000 -171.567000 2.448260 -5.694300 39.081100 -0.000007 -0.000012 0.403910 -0.740115 28.624000 40.985400 -0.000006 -0.000013 -0.165197 2.850780 -76.012100 11.754300 -0.000000 0.000003 0.000970 0.149284 -10.522600 -2.192510 6.469440 -0.000001 -169.194000 4.645580 -178.705000 -39.081100 -0.002282 -0.040193 0.076117 -0.262784 15.482000 -40.985400 0.000008 0.000006 3.186080 3.138910 -69.787500 -11.754300 -0.000006 -0.000006 -0.010371 0.274055 -5.438480
0.000000 0.000000 0.000000 0.000000 0.000000 -0.000000 -2.997430 92.136300 -2.033410 82.975200 -3.633060 2.599680 15.735700 0.000005 -0.000001 50.175000 88.133800 -47.233900 8.984550 -0.406207 -0.000000 -4.825950 -2.710940 5.773310 16.377300 -0.000001 -0.000001 10.120900 1.005710 7.675570 6.456720 -0.000001 -0.000000 7.083850 4.481030 17.379800 12.994200 -0.242716 4.980390 -91.850000 5.567370 -71.586200 5.348090 -0.000007 -0.000001 -74.606500 32.208900 3.333270 24.328600 0.000019 0.000005 12.737400 27.962600 -25.737800 22.291600 -0.000001 0.000005 -3.866400 4.954910 8.263910 12.994500 -0.242716 -4.980390 87.428500 6.917780 -69.550800 -5.348130 -0.000001 -0.000004 -67.481600 -0.085246 -10.085100 -24.328900 0.000322 -0.000009 16.266600 -19.734800 -139.168000 -22.291500 -0.000108 -0.000004 54.571600 5.635230 -13.739400 -2.192480 -6.469440 -0.000000 -171.609000 2.480740 -5.659630 39.081100 -0.000007 -0.000012 0.402892 -0.740273 28.558200 40.985400 -0.000006 -0.000013 -0.115739 2.956830 -75.967200 11.754300 -0.000000 0.000003 0.000989 0.148865 -10.539600 -2.192510 6.469440 -0.000001 -169.244000 4.616410 -178.674000 -39.081100 -0.002282 -0.040193 0.074229 -0.256579 15.447000 -40.985400 0.000008 0.000006 3.061340 3.030380 -69.713100 -11.754300 -0.000006 -0.000006 -0.009705 0.269085 -5.641760
0.000000 0.000000 0.000000 0.000000 0.000000 -0.000000 -2.947580 92.146700 -1.970510 83.074200 -3.522980 2.584420 15.735700 0.000005 -0.000001 50.181400 88.144700 -47.284900 8.984550 -0.406207 -0.000000 -4.844160 -2.692200 5.684500 16.377300 -0.000001 -0.000001 10.070400 1.008980 7.606700 6.456720 -0.000001 -0.000000 7.089880 4.480150 17.338800 12.994200 -0.242716 4.980390 -91.851600 5.569840 -71.578900 5.348090 -0.000007 -0.000001 -74.674100 32.307900 3.283990 24.328600 0.000019 0.000005 12.790400 27.884500 -25.891900 22.291600 -0.000001 0.000005 -3.909130 4.955660 8.248510 12.994500 -0.242716 -4.980390 87.431200 6.915880 -69.565300 -5.348130 -0.000001 -0.000004 -67.494500 -0.125358 -9.950730 -24.328900 0.000322 -0.000009 16.201500 -19.577500 -139.070000 -22.291500 -0.000108 -0.000004 54.516800 5.634640 -13.692700 -2.192480 -6.469440 -0.000000 -171.742000 2.498040 -5.594130 39.081100 -0.000007 -0.000012 0.397975 -0.735165 28.429500 40.985400 -0.000006 -0.000013 -0.068716 2.984210 -75.993600 11.754300 -0.000000 0.000003 0.000850 0.151829 -10.419300 -2.192510 6.469440 -0.000001 -169.396000 4.708800 -178.660000 -39.081100 -0.002282 -0.040193 0.073927 -0.255288 15.458300 -40.985400 0.000008 0.000006 2.968240 3.051900 -69.823700 -11.754300 -0.000006 -0.000006 -0.010124 0.272226 -5.513330
